<svg xmlns="http://www.w3.org/2000/svg" viewBox="0 0 100 100" width="500" height="500">
  <rect width="100" height="100" fill="#000000" />
  
  <g fill="#ffffff" transform="translate(9, 10)">
    <path d="M45.55 57.30Q45.55 57.95 44.95 57.95Q43.10 57.95 41.30 57.85Q39.50 57.75 37.70 57.75Q36.85 57.75 36 57.77Q35.15 57.80 34.30 57.85Q33.45 57.90 32.63 57.97Q31.80 58.05 30.95 58.05Q30.50 58.05 30.38 57.77Q30.25 57.50 30.25 57.15Q30.25 56.95 30.35 56.72Q30.45 56.50 30.70 56.50Q30.85 56.45 31.15 56.45Q31.50 56.45 31.88 56.47Q32.25 56.50 32.60 56.50Q33.30 56.50 34.18 56.35Q35.05 56.20 35.15 55.25Q35.20 55.10 35.18 54.95Q35.15 54.80 35.15 54.65L35.15 24.00L34.85 24.00Q32.95 29.15 30.90 34.22Q28.85 39.30 26.80 44.35Q26.00 46.40 25.15 48.45Q24.30 50.50 23.45 52.55Q23.10 53.45 22.78 54.40Q22.45 55.35 22.00 56.20Q21.65 56.75 20.90 56.75Q20.20 56.75 19.85 56.20Q19.45 55.45 19.13 54.60Q18.80 53.75 18.45 52.95Q17.70 51.20 17.00 49.50Q16.30 47.80 15.60 46.10Q13.30 40.60 11.03 35.12Q8.75 29.65 6.50 24.20Q6.50 31.95 6.53 39.72Q6.55 47.50 6.55 55.25Q6.55 56.25 7.43 56.40Q8.30 56.55 9.05 56.55Q9.55 56.55 10.05 56.50Q10.55 56.45 11.05 56.45Q11.30 56.45 11.30 56.75Q11.30 57.00 11.25 57.45Q11.20 57.90 10.85 57.90Q9.50 57.90 8.13 57.82Q6.75 57.75 5.40 57.75Q4.10 57.75 2.78 57.82Q1.45 57.90 0.15 57.90Q0.10 57.80 0.07 57.72Q0.05 57.65 0 57.60L0 57.15Q0 56.65 0.20 56.60Q0.40 56.55 0.75 56.55Q1.15 56.55 1.50 56.57Q1.85 56.60 2.20 56.60Q2.95 56.60 3.80 56.40Q4.65 56.20 4.70 55.25Q4.80 54.45 4.78 53.62Q4.75 52.80 4.75 52.00Q4.75 50.40 4.72 48.77Q4.70 47.15 4.70 45.55Q4.70 40.20 4.78 34.90Q4.85 29.60 4.85 24.30Q4.85 23.35 3.95 23.05Q3.05 22.75 2.30 22.75Q1.85 22.75 1.40 22.80Q0.95 22.85 0.50 22.85Q0.20 22.85 0.10 22.55Q0 22.25 0 22.05Q0 21.35 0.55 21.35Q1.85 21.35 3.20 21.42Q4.55 21.50 5.85 21.50Q8.40 21.50 10.95 21.35L22.80 49.85Q25.55 42.70 28.55 35.67Q31.55 28.65 34.10 21.45Q35.35 21.50 36.58 21.52Q37.80 21.55 39.05 21.55Q40.55 21.55 42.03 21.42Q43.50 21.30 45.00 21.30Q45.30 21.30 45.35 21.60Q45.40 21.90 45.40 22.10Q45.40 22.30 45.35 22.60Q45.30 22.90 45.00 22.90Q44.35 22.90 43.75 22.85Q43.15 22.80 42.55 22.80Q41.95 22.80 41.08 23.07Q40.20 23.35 40.20 24.10L40.20 54.85Q40.20 56.00 40.88 56.27Q41.55 56.55 42.60 56.55Q43.20 56.55 43.80 56.50Q44.40 56.45 45.05 56.45Q45.45 56.45 45.50 56.75Q45.55 57.05 45.55 57.30ZM82.30 57.20Q82.30 57.40 82.20 57.65Q82.10 57.90 81.85 57.90Q80.30 57.90 78.72 57.92Q77.15 57.95 75.55 57.95Q74.75 57.95 74.03 57.87Q73.30 57.80 72.70 57.25Q72.50 57.10 72.35 56.90Q72.20 56.70 72.05 56.50Q65.85 47.85 59.05 39.45L57.30 40.90L57.30 55.35Q57.30 56.20 58.10 56.45Q58.90 56.70 59.90 56.67Q60.90 56.65 61.40 56.65Q62.05 56.65 62.05 57.30Q62.05 57.95 61.50 57.95Q59.80 57.95 58.15 57.85Q56.50 57.75 54.80 57.75Q53.15 57.75 51.48 57.80Q49.80 57.85 48.15 57.95Q47.75 57.70 47.75 57.25Q47.75 56.90 47.83 56.80Q47.90 56.70 48.25 56.65Q48.55 56.60 48.85 56.62Q49.15 56.65 49.45 56.65Q49.90 56.65 50.58 56.60Q51.25 56.55 51.78 56.27Q52.30 56.00 52.30 55.35L52.30 23.95Q52.30 23.45 51.63 23.05Q50.95 22.65 50.55 22.65L49.45 22.65Q49.10 22.65 48.80 22.67Q48.50 22.70 48.15 22.70Q47.65 22.70 47.60 22.40Q47.55 22.10 47.55 21.75Q47.55 21.35 47.90 21.35Q49.65 21.35 51.38 21.45Q53.10 21.55 54.80 21.55Q56.40 21.55 57.98 21.45Q59.55 21.35 61.10 21.35Q61.70 21.35 61.70 22.05Q61.70 22.25 61.58 22.47Q61.45 22.70 61.20 22.70Q60.65 22.70 60.10 22.67Q59.55 22.65 59 22.65Q58.45 22.65 57.88 23.00Q57.30 23.35 57.30 23.95L57.30 31.55Q57.30 33.50 57.30 35.45Q57.30 37.40 57.25 39.35Q62.25 34.65 67.05 29.70Q68.85 27.80 70.55 25.92Q72.25 24.05 73.80 22.00Q74.15 21.50 74.60 21.50Q75.35 21.50 76.10 21.52Q76.85 21.55 77.60 21.55Q78.25 21.55 78.88 21.52Q79.50 21.50 80.15 21.50Q80.40 21.50 80.47 21.72Q80.55 21.95 80.55 22.15Q80.55 22.35 80.43 22.57Q80.30 22.80 80.05 22.80Q78.65 22.80 77.40 23.20Q76.15 23.60 75.10 24.60L62.70 36.40Q66.45 41.20 70.33 45.97Q74.20 50.75 78.30 55.30Q79.05 56.10 79.97 56.30Q80.90 56.50 81.60 56.60Q82.30 56.70 82.30 57.20Z"/>
  </g>
</svg>